# xmcd CD database file
#
# Track frame offsets:
#	150
#	40407
#	75911
#	107091
#	141701
#
# Disc length: 2462 seconds
#
# Revision: 0
# Processed by: cddbd v1.5.2PL0 Copyright (c) Steve Scherf et al.
# Submitted via: CDex 1.51
#
DISCID=3e099c05
DTITLE=Matthew Halsall - Sending My Love
DYEAR=2008
DGENRE=Jazz
TTITLE0=On The Other Side Of The World
TTITLE1=Reflections
TTITLE2=Freedom Song
TTITLE3=Sending My Love
TTITLE4=Sachi
EXTD=YEAR: 2008
EXTT0=
EXTT1=
EXTT2=
EXTT3=
EXTT4=
PLAYORDER=
